#!OML:ASF F:\VICON\USERDATA\INSTALL\rory3\rory3.ASF
:FULLY-SPECIFIED
:DEGREES
47
root -0.6222101724361285 18.18758763320862 18.110555125251565 2.8223351313907337 -5.780039303257077 -0.16809975238070374
lfemur 5.622352840306114 -2.6251669159197717 -24.663386060396405
ltibia 64.41408901947185
lfoot 19.507548157228193 -15.227620876717932
ltoes 0.6884688676712489
rfemur -35.20863999540913 2.5980466876367814 27.56980220703486
rtibia 30.467447568168712
rfoot 1.4276569000789094 -4.039039984196568
rtoes -23.586805976135935
lowerback 1.0 -0.6218761858421732 -0.562409335956026
upperback -0.13912625400698087 -0.7234832747238557 1.921362532932517
thorax -8.678893153450566 -0.25024457260585226 2.3274497070660245
lowerneck -19.69421774351276 -2.8474761883918887 -2.585255192563349
upperneck 12.034688323880573 -3.276672650201859 1.5598840454429441
head 6.758787692223224 -1.5900043923519314 0.47108551102473784
lclavicle 6.07345851589708e-16 -2.5819617400879173e-15
lhumerus -39.424071753025224 -18.441848315835447 97.53001123735015
lradius 112.49748236780529
lwrist 28.680918921105643
lhand -32.40117142746848 0.6884508324337656
lfingers 7.12502
lthumb -5.45054065292095 30.451890835743477
rclavicle 5.304443180681493e-16 -2.821072443774908e-15
rhumerus -59.074843885665466 5.982439789481392 -95.84069799312284
rradius 124.96408103431031
rwrist -10.81995154272669
rhand -17.933450367615258 1.0
rfingers 7.12502
rthumb 8.42493759324204 8.478331050192107
48
root -0.6478016000844092 17.9435765969736 17.859113937390987 2.052169418906469 -6.992097246359614 -0.8335050360429469
lfemur 2.573840474450961 -0.9303037024761471 -22.278515911669906
ltibia 72.99125347668645
lfoot 16.059974613902927 -13.32555554023508
ltoes -0.43001550499044505
rfemur -33.868837316078626 3.4866117789188973 29.07205217556406
rtibia 35.1294800147836
rfoot -1.81945782885481 -3.540281886189539
rtoes -22.50574151162741
lowerback 1.0 -0.28902441088435893 0.04968088468387788
upperback 0.1264650840308823 -0.1915843309387858 2.1562235584123752
thorax -8.936810910718538 -0.010889513466004364 2.049954259609203
lowerneck -19.71816217234264 -2.8444777969094295 -2.4533127391054195
upperneck 11.870614943683943 -3.242478852861257 1.2545752247621293
head 6.754023127273272 -1.5860916398030132 0.30621082405857525
lclavicle 9.620942859194462e-16 -1.6636546501931333e-15
lhumerus -40.62424917263128 -17.8981010428158 97.63176609114637
lradius 110.1901774334739
lwrist 29.200456620758004
lhand -32.609797125692225 0.19001529524459335
lfingers 7.12502
lthumb -5.550240673893991 29.839071308826853
rclavicle 9.42848859260197e-16 -2.1995007608573287e-15
rhumerus -57.982096825641605 5.681439273532542 -95.52961235904384
rradius 124.40060929549709
rwrist -11.100418824830033
rhand -17.954367808750813 1.0
rfingers 7.12502
rthumb 8.468808718976764 8.591885481898501
49
root -0.6736225987900185 17.743258310659943 20.082958305492767 1.5757838278158398 -7.483825478252484 -1.731710160880957
lfemur -0.8712960600623134 0.8139821896914503 -19.133002605362385
ltibia 81.99243451223087
lfoot 12.322759791889139 -11.32770010245676
ltoes -1.7343269671196122
rfemur -32.35223709118903 4.4433605284278475 30.756359778373735
rtibia 40.1034614772816
rfoot -6.559417300693566 -3.922083947094338
rtoes -19.36613623375796
lowerback 1.0 -0.08670738339586215 0.8233586403540625
upperback 0.2620429317248697 0.19458028504270664 2.4876642250372174
thorax -9.178999637005793 0.14809321959033922 1.8015703240759051
lowerneck -20.02165759259131 -2.8427414089291325 -2.2498229053024255
upperneck 11.831790421618631 -3.219658777705369 0.9649005146525482
head 6.858608157869177 -1.5698039284101033 0.14679669174005672
lclavicle 1.0806834375660624e-15 -1.8509115889406884e-15
lhumerus -42.12262506520245 -17.265178545097193 97.78135949641744
lradius 108.24816886817932
lwrist 30.414956280709227
lhand -32.26599889079689 0.4010309047487314
lfingers 7.12502
lthumb -5.5137916510214655 29.77747665733183
rclavicle 9.71499015636498e-16 -2.2165898960082214e-15
rhumerus -56.6188625206401 5.623349874964706 -95.43007225426177
rradius 123.69626992171425
rwrist -11.437491540279774
rhand -18.049603003802307 1.0
rfingers 7.12502
rthumb 8.255115154307553 7.573824179149759
50
root -0.7015652274722795 17.524601106746395 19.60317166801742 1.3356606627150613 -7.033679079923209 -2.5042316105503235
lfemur -4.884969356926183 2.337505694957916 -16.098006344260217
ltibia 90.69966085958282
lfoot 9.121053111981682 -10.567802456539285
ltoes -1.4783193854569108
rfemur -30.117976664158167 5.229912450642324 32.15764331782451
rtibia 44.39710008228597
rfoot -11.073747557672155 -5.707821774263787
rtoes -15.281139863577001
lowerback 1.0 0.012543105965137191 1.587154724909415
upperback 0.3412756030837901 0.4841726571749838 2.780581379971858
thorax -9.260117418163125 0.24452402341574203 1.5180361830290936
lowerneck -20.660201404359192 -2.920287855430722 -1.994535374392671
upperneck 11.815935395042946 -3.3552688215259487 0.8020333178449273
head 7.053582058618537 -1.6193923647577981 0.008128483626099192
lclavicle 1.1397835926892806e-15 -1.9700201227013705e-15
lhumerus -43.86325468930083 -16.629922719762813 97.99142718883934
lradius 106.68062948131328
lwrist 31.784272349128784
lhand -32.13287018905684 0.3152991966899468
lfingers 7.12502
lthumb -5.360423561164186 29.892474392567756
rclavicle 1.000788106685228e-15 -2.2039266277075017e-15
rhumerus -55.07892221384614 5.856464613684856 -95.51558248498313
rradius 122.91183408446406
rwrist -11.7284780106538
rhand -18.07156514667768 1.0
rfingers 7.12502
rthumb 8.319372711311123 7.07234852042993
51
root -0.7667019843301858 17.31510621795992 18.746130408322166 1.209457711004588 -6.990860268069555 -3.655892547107195
lfemur -9.435477003988414 4.1498268472732605 -12.519888733705198
ltibia 98.34162100209544
lfoot 6.817727748518448 -11.355914965390115
ltoes -0.01700627830966539
rfemur -27.31687547104927 6.36702718817481 34.112576608087096
rtibia 47.53265037709769
rfoot -14.481145214378682 -8.542373737077643
rtoes -11.088089557420151
lowerback 1.0 0.18287268352626151 2.544505561015397
upperback 0.4306188383041615 0.8797806601018459 3.1705435011904166
thorax -9.3533350110684 0.3912901244009601 1.207717272032899
lowerneck -21.312822022053346 -3.0733797614169953 -1.7296779133430509
upperneck 11.531317238847919 -3.6113586566634357 0.766488541444883
head 7.136276938617961 -1.720631787758803 -0.08357002631119059
lclavicle 1.110379251003879e-15 -1.7155008119222274e-15
lhumerus -45.74780967138734 -16.027627084552503 98.2707329462323
lradius 105.5785277602085
lwrist 33.16923717816753
lhand -31.81629288603998 0.6607011891480233
lfingers 7.12502
lthumb -5.073316324035858 30.231403301398487
rclavicle 8.920750428412977e-16 -2.1539818745385665e-15
rhumerus -53.58002989646705 6.274783075093737 -95.76375123038105
rradius 122.17080689124879
rwrist -11.868439080481878
rhand -18.196809178095666 1.0
rfingers 7.12502
rthumb 8.14492464816815 6.146202963408843
